<?xml version="1.0" encoding="UTF-8"?>
<svg version="1.1" xmlns="http://www.w3.org/2000/svg" width="1200" height="1200">
<path d="M0 0 C396 0 792 0 1200 0 C1200 396 1200 792 1200 1200 C804 1200 408 1200 0 1200 C0 804 0 408 0 0 Z " fill="#030E1D" transform="translate(0,0)"/>
<path d="M0 0 C396 0 792 0 1200 0 C1200 396 1200 792 1200 1200 C804 1200 408 1200 0 1200 C0 804 0 408 0 0 Z M32 32 C32 406.88 32 781.76 32 1168 C406.88 1168 781.76 1168 1168 1168 C1168 793.12 1168 418.24 1168 32 C793.12 32 418.24 32 32 32 Z " fill="#97FFE7" transform="translate(0,0)"/>
<path d="M0 0 C94.71 0 189.42 0 287 0 C287.0806627 92.96824086 287.0806627 92.96824086 287.09765625 131.87109375 C287.10157158 140.7745769 287.10561243 149.67805997 287.10986328 158.58154297 C287.11039078 159.69734218 287.11091828 160.81314139 287.11146176 161.9627527 C287.12014384 179.94112899 287.13590232 197.91949241 287.15430559 215.89786108 C287.17305476 234.36914921 287.1841273 252.84043063 287.18817699 271.31172788 C287.19091167 282.69567867 287.19952699 294.07959304 287.21583293 305.46353261 C287.22646184 313.2858496 287.22958736 321.10814795 287.22700275 328.93047161 C287.22573059 333.43336449 287.22758356 337.93619405 287.23841095 342.43907547 C287.31774196 377.19269251 285.77119297 411.25047885 273 444 C272.55914063 445.14082031 272.11828125 446.28164063 271.6640625 447.45703125 C258.38391694 480.14379835 232.48272814 506.98649667 199.90234375 520.78515625 C197.41462579 521.79993084 194.91636164 522.76088875 192.40234375 523.7109375 C190.09522547 524.58504661 187.81426423 525.53088624 185.5625 526.5390625 C181.78666504 528.08748605 178.0316857 529.11491934 174.0625 530 C173.3295874 530.16733643 172.5966748 530.33467285 171.84155273 530.50708008 C157.45908486 533.74101688 143.3252973 536.11759337 128.55078125 536.23828125 C127.57626511 536.246353 126.60174896 536.25442474 125.59770203 536.26274109 C123.54130784 536.27648941 121.48489172 536.28725234 119.4284668 536.29516602 C117.37435975 536.30659292 115.32028015 536.32689383 113.26635742 536.35668945 C67.17566007 537.02229936 20.30456386 520.60853196 -13.38647461 488.57519531 C-17.50111688 484.57436357 -21.42869188 480.49902724 -25 476 C-25.77730469 475.02546875 -26.55460938 474.0509375 -27.35546875 473.046875 C-31.62558575 467.62751865 -35.73696458 462.09394845 -39.6875 456.4375 C-40.35136719 455.48746094 -41.01523437 454.53742188 -41.69921875 453.55859375 C-43 451 -43 451 -42.81214905 449.09222412 C-41.77226014 446.41330619 -40.34789017 444.98762113 -38.30639648 442.96582031 C-37.52566269 442.18531311 -36.74492889 441.40480591 -35.9405365 440.60064697 C-35.09262039 439.76821472 -34.24470428 438.93578247 -33.37109375 438.078125 C-32.07474754 436.78814606 -32.07474754 436.78814606 -30.75221252 435.47210693 C-27.98759388 432.72429425 -25.21273138 429.98708964 -22.4375 427.25 C-20.56246749 425.39001175 -18.68810982 423.52934293 -16.81445312 421.66796875 C-12.21743983 417.10405027 -7.61197045 412.54880062 -3 408 C0.29452286 409.09817429 0.59996074 409.48145138 2.3828125 412.24609375 C2.82343018 412.91390869 3.26404785 413.58172363 3.71801758 414.26977539 C4.18232178 414.98512451 4.64662598 415.70047363 5.125 416.4375 C9.05840994 422.33663336 13.14543824 427.74021242 18.02734375 432.90625 C19.74817529 434.73271675 21.31169981 436.60280745 22.875 438.5625 C34.31852636 451.91328075 51.22243855 460.77585774 67 468 C67.8971875 468.41121094 68.794375 468.82242187 69.71875 469.24609375 C93.70869348 479.00149798 122.06251444 478.15987082 147 473 C147.66741211 472.87141602 148.33482422 472.74283203 149.02246094 472.61035156 C167.62919419 468.92649959 185.6353555 458.31260333 197 443 C199.9186949 438.47615791 202.49037396 433.76090823 205 429 C205.33507568 428.3925293 205.67015137 427.78505859 206.01538086 427.15917969 C208.8891256 421.76536086 210.55776063 416.28363344 212.0625 410.375 C212.31926514 409.37009521 212.57603027 408.36519043 212.84057617 407.32983398 C216.26440085 393.42251689 217.99899651 379.47199591 218.56138611 365.17138672 C218.60254986 364.14397306 218.64371361 363.11655941 218.68612474 362.05801201 C219.14747665 349.46639254 219.17572287 336.8729171 219.20060861 324.27424312 C219.20877762 320.67134789 219.22241563 317.06847224 219.23532104 313.46559143 C219.25685547 307.25362783 219.27508132 301.04166202 219.29092598 294.8296814 C219.31383844 285.84869025 219.34194895 276.86772099 219.37124526 267.88674867 C219.4186628 253.3084607 219.46199518 238.73016366 219.50268555 224.15185547 C219.5421732 210.00764259 219.58364073 195.86343773 219.62768555 181.71923828 C219.63180981 180.3936411 219.63180981 180.3936411 219.63601738 179.04126418 C219.65754212 172.12779654 219.67918006 165.21432925 219.70085371 158.30086207 C219.80668383 124.53392439 219.90265902 90.76696529 220 57 C147.4 57 74.8 57 0 57 C0 38.19 0 19.38 0 0 Z " fill="#95FDE5" transform="translate(669,305)"/>
<path d="M0 0 C21.78 0 43.56 0 66 0 C66 154.44 66 308.88 66 468 C151.8 468 237.6 468 326 468 C326 487.14 326 506.28 326 526 C218.42 526 110.84 526 0 526 C0 352.42 0 178.84 0 0 Z " fill="#96FEE6" transform="translate(188,306)"/>
</svg>
